<svg width="20" height="20" viewBox="0 0 20 20" fill="none" xmlns="http://www.w3.org/2000/svg">
<g clip-path="url(#clip0_7298_2622)">
<path d="M17.0754 2.92706C13.1759 -0.972431 6.82893 -0.972431 2.92944 2.92706C1.04052 4.81673 0 7.32859 0 10C0 12.6715 1.04052 15.1833 2.92944 17.0722C4.87958 19.0224 7.44101 19.997 10.0024 19.997C12.5638 19.997 15.1253 19.0224 17.0754 17.0722C20.9749 13.1727 20.9749 6.82729 17.0754 2.92706ZM15.9798 15.9767C12.6839 19.2726 7.32089 19.2726 4.02496 15.9767C2.42893 14.3806 1.54955 12.2577 1.54955 10C1.54955 7.7423 2.42893 5.61939 4.02496 4.02258C7.32089 0.726648 12.6839 0.727429 15.9798 4.02258C19.275 7.31851 19.275 12.6815 15.9798 15.9767Z" fill="#0878BD"/>
<path d="M13.3395 12.1422L11.1461 9.95192L13.3395 7.76162C13.6416 7.45947 13.6416 6.96904 13.3403 6.66607C13.0373 6.36235 12.5469 6.36313 12.244 6.66529L10.049 8.85714L7.85407 6.66529C7.55113 6.36313 7.0607 6.36235 6.75777 6.66607C6.45561 6.969 6.45561 7.45943 6.75855 7.76162L8.95197 9.95192L6.75855 12.1422C6.45561 12.4444 6.45561 12.9348 6.75777 13.2378C6.90886 13.3896 7.10796 13.4648 7.30633 13.4648C7.50469 13.4648 7.70301 13.3888 7.8541 13.2385L10.049 11.0467L12.244 13.2385C12.3951 13.3896 12.5934 13.4648 12.7918 13.4648C12.9901 13.4648 13.1892 13.3888 13.3403 13.2378C13.6424 12.9348 13.6424 12.4444 13.3395 12.1422Z" fill="#0878BD"/>
</g>
<defs>
<clipPath id="clip0_7298_2622">
<rect width="20" height="20" fill="white"/>
</clipPath>
</defs>
</svg>
