<svg width="258" height="31" viewBox="0 0 258 31" fill="none" xmlns="http://www.w3.org/2000/svg">
<path d="M46.1353 25.3323C45.4837 25.8954 44.7436 26.3298 43.9392 26.6274C43.1267 26.925 42.282 27.0779 41.4132 27.0779C40.7455 27.0779 40.102 26.9894 39.4826 26.8205C38.8632 26.6515 38.284 26.4022 37.745 26.0804C37.206 25.7667 36.7153 25.3805 36.2648 24.9381C35.8224 24.4956 35.4362 23.9969 35.1225 23.4579C34.8088 22.9189 34.5594 22.3397 34.3824 21.7203C34.2054 21.1009 34.125 20.4574 34.125 19.7897C34.125 19.122 34.2135 18.4784 34.3824 17.851C34.5594 17.2315 34.8007 16.6443 35.1225 16.1053C35.4443 15.5664 35.8224 15.0756 36.2648 14.6252C36.7073 14.1827 37.206 13.7966 37.745 13.4829C38.284 13.1691 38.8632 12.9197 39.4826 12.7428C40.102 12.5738 40.7455 12.4854 41.4132 12.4854C42.282 12.4854 43.1267 12.6382 43.9392 12.9358C44.7517 13.2335 45.4837 13.6679 46.1353 14.239L44.639 16.6926C44.2288 16.2501 43.7381 15.9042 43.1749 15.6629C42.6118 15.4216 42.0246 15.3009 41.4052 15.3009C40.7858 15.3009 40.1985 15.4216 39.6595 15.6548C39.1125 15.8881 38.6379 16.2099 38.2357 16.6121C37.8335 17.0143 37.5117 17.489 37.2704 18.036C37.029 18.583 36.9164 19.1622 36.9164 19.7816C36.9164 20.401 37.0371 20.9722 37.2704 21.5112C37.5037 22.0501 37.8254 22.5248 38.2357 22.927C38.6379 23.3292 39.1125 23.651 39.6595 23.8923C40.2066 24.1256 40.7858 24.2463 41.4052 24.2463C42.0246 24.2463 42.6118 24.1256 43.1749 23.8843C43.7381 23.6429 44.2288 23.3051 44.639 22.8546L46.1353 25.3081V25.3323Z" fill="#303030"/>
<path d="M50.1573 26.7799H47.4785V12.0747H50.1573V16.7163C50.4791 16.475 50.8089 16.3061 51.1468 16.2015C51.4846 16.0969 51.8305 16.0486 52.1845 16.0486C52.8361 16.0486 53.4394 16.1693 54.0106 16.4187C54.5817 16.66 55.0724 16.9979 55.4988 17.4323C55.9171 17.8586 56.255 18.3654 56.5043 18.9366C56.7457 19.5077 56.8744 20.1191 56.8744 20.7707V26.7799H54.1715V20.7707H54.1875C54.1875 20.4972 54.1312 20.2317 54.0267 19.9904C53.9221 19.7491 53.7773 19.5319 53.5923 19.3468C53.4072 19.1618 53.1981 19.017 52.9568 18.9124C52.7154 18.8079 52.458 18.7516 52.1845 18.7516C51.911 18.7516 51.6375 18.8079 51.3881 18.9124C51.1387 19.017 50.9215 19.1618 50.7365 19.3468C50.5515 19.5319 50.4067 19.741 50.3021 19.9904C50.1975 20.2398 50.1412 20.4972 50.1412 20.7707V26.7799H50.1573Z" fill="#303030"/>
<path d="M68.9656 26.78H68.314L67.2763 25.3401C67.0189 25.5734 66.7534 25.7825 66.4638 25.9836C66.1822 26.1847 65.8766 26.3537 65.5628 26.5065C65.2491 26.6513 64.9273 26.772 64.5975 26.8524C64.2677 26.9409 63.9298 26.9811 63.5919 26.9811C62.8519 26.9811 62.16 26.8605 61.5084 26.6111C60.8568 26.3617 60.2857 25.9997 59.803 25.5251C59.3123 25.0505 58.9342 24.4713 58.6527 23.7795C58.3711 23.0957 58.2344 22.3073 58.2344 21.4305C58.2344 20.61 58.3711 19.8618 58.6527 19.1781C58.9342 18.4943 59.3204 17.907 59.803 17.4163C60.2937 16.9256 60.8568 16.5475 61.5084 16.274C62.16 16.0005 62.8519 15.8638 63.5919 15.8638C63.9298 15.8638 64.2677 15.904 64.6055 15.9925C64.9434 16.081 65.2652 16.1936 65.5789 16.3464C65.8926 16.4993 66.1903 16.6763 66.4799 16.8774C66.7614 17.0785 67.0349 17.2957 67.2763 17.537L68.314 16.2901H68.9656V26.7881V26.78ZM66.2627 21.4305C66.2627 21.0605 66.1903 20.7065 66.0535 20.3606C65.9168 20.0147 65.7237 19.709 65.4824 19.4516C65.241 19.1861 64.9595 18.977 64.6297 18.8161C64.3079 18.6552 63.962 18.5747 63.5919 18.5747C63.2219 18.5747 62.884 18.6391 62.5542 18.7598C62.2324 18.8804 61.9509 19.0654 61.7096 19.3068C61.4682 19.5481 61.2832 19.8457 61.1464 20.2077C61.0097 20.5617 60.9373 20.972 60.9373 21.4305C60.9373 21.889 61.0097 22.2993 61.1464 22.6532C61.2832 23.0072 61.4682 23.3129 61.7096 23.5542C61.9509 23.7955 62.2324 23.9806 62.5542 24.1012C62.876 24.2219 63.2219 24.2863 63.5919 24.2863C63.962 24.2863 64.2998 24.2058 64.6297 24.0449C64.9514 23.884 65.233 23.6749 65.4824 23.4094C65.7237 23.144 65.9168 22.8383 66.0535 22.5004C66.1983 22.1545 66.2627 21.8005 66.2627 21.4385V21.4305Z" fill="#303030"/>
<path d="M76.2767 26.7801C75.6251 26.7801 75.0218 26.6595 74.4507 26.4101C73.8795 26.1688 73.3808 25.8309 72.9544 25.3965C72.5281 24.9701 72.1902 24.4714 71.9408 23.9002C71.6914 23.3291 71.5708 22.7257 71.5708 22.0742V18.9529H70.2676V16.2822H71.5708V12.083H74.2415V16.2822H78.3039V18.9529H74.2415V22.0742C74.2415 22.3557 74.2898 22.6212 74.4024 22.8625C74.507 23.1038 74.6518 23.321 74.8368 23.5061C75.0218 23.6911 75.239 23.8359 75.4884 23.9405C75.7378 24.045 76.0032 24.1013 76.2848 24.1013H78.32V26.7721H76.2848L76.2767 26.7801Z" fill="#303030"/>
<path d="M91.3038 25.3562C90.6522 25.9113 89.9202 26.3376 89.1157 26.6353C88.3113 26.9329 87.4747 27.0858 86.6059 27.0858C85.9382 27.0858 85.2947 26.9973 84.6752 26.8284C84.0558 26.6594 83.4766 26.41 82.9457 26.0883C82.4067 25.7745 81.916 25.3884 81.4736 24.946C81.0311 24.5035 80.645 24.0128 80.3313 23.4738C80.0175 22.9349 79.7762 22.3557 79.5992 21.7282C79.4222 21.1088 79.3418 20.4652 79.3418 19.7976C79.3418 19.1299 79.4303 18.4863 79.5992 17.8749C79.7762 17.2636 80.0175 16.6844 80.3313 16.1374C80.645 15.5984 81.0231 15.1077 81.4736 14.6652C81.916 14.2228 82.4067 13.8447 82.9457 13.531C83.4847 13.2172 84.0639 12.9759 84.6752 12.7989C85.2947 12.63 85.9382 12.5415 86.6059 12.5415C87.4747 12.5415 88.3113 12.6943 89.1157 12.992C89.9202 13.2896 90.6522 13.716 91.3038 14.271L89.8317 16.7246C89.4053 16.2902 88.9146 15.9523 88.3596 15.711C87.8045 15.4697 87.2173 15.341 86.5978 15.341C85.9784 15.341 85.4073 15.4616 84.8683 15.6949C84.3293 15.9282 83.8547 16.25 83.4525 16.6522C83.0503 17.0544 82.7285 17.529 82.4872 18.068C82.2539 18.607 82.1332 19.1862 82.1332 19.8056C82.1332 20.425 82.2539 21.0123 82.4872 21.5512C82.7204 22.0902 83.0422 22.5729 83.4525 22.9751C83.8547 23.3773 84.3293 23.6991 84.8683 23.9404C85.4073 24.1737 85.9865 24.2944 86.5978 24.2944C86.9518 24.2944 87.2977 24.2542 87.6275 24.1657C87.9574 24.0772 88.2791 23.9646 88.5768 23.8117V19.8056H91.2958V25.3643L91.3038 25.3562Z" fill="#303030"/>
<path d="M96.2921 26.7801H93.4766V12.6943H99.1157C99.6305 12.6943 100.129 12.7587 100.612 12.8954C101.087 13.0322 101.537 13.2172 101.955 13.4666C102.374 13.716 102.752 14.0056 103.098 14.3515C103.444 14.6974 103.733 15.0755 103.983 15.4938C104.224 15.9121 104.417 16.3626 104.554 16.8372C104.69 17.3118 104.755 17.8106 104.755 18.3335C104.755 19.1057 104.61 19.8378 104.312 20.5215C104.015 21.2053 103.613 21.8006 103.106 22.3154C102.599 22.8303 101.996 23.2245 101.312 23.5221C100.628 23.8197 99.896 23.9645 99.1237 23.9645H96.3082V26.7801H96.2921ZM96.2921 15.5179V21.157H99.1076C99.4938 21.157 99.8558 21.0846 100.194 20.9318C100.532 20.787 100.829 20.5859 101.087 20.3285C101.344 20.0711 101.545 19.7734 101.69 19.4275C101.835 19.0816 101.907 18.7196 101.907 18.3335C101.907 17.9473 101.835 17.5853 101.69 17.2394C101.545 16.8935 101.344 16.5959 101.087 16.3384C100.829 16.081 100.532 15.8799 100.194 15.7351C99.8558 15.5903 99.4857 15.5179 99.1076 15.5179H96.2921Z" fill="#303030"/>
<path d="M112.179 26.7798H109.372V15.5177H105.141V12.7021H116.403V15.5177H112.179V26.7798Z" fill="#303030"/>
<path d="M134.631 26.7801H131.816V23.9645H126.177V26.7801H123.369V18.3335C123.369 17.5532 123.514 16.8211 123.812 16.1373C124.109 15.4536 124.503 14.8583 125.018 14.3434C125.525 13.8366 126.12 13.4344 126.804 13.1368C127.488 12.8391 128.22 12.6943 129 12.6943C129.781 12.6943 130.513 12.8391 131.196 13.1368C131.88 13.4344 132.475 13.8366 132.99 14.3434C133.505 14.8502 133.907 15.4536 134.197 16.1373C134.495 16.8211 134.639 17.5532 134.639 18.3335V26.7801H134.631ZM131.816 21.157V18.3415C131.816 17.9554 131.743 17.5934 131.599 17.2475C131.454 16.9016 131.253 16.6039 130.995 16.3465C130.738 16.0891 130.44 15.888 130.094 15.7432C129.748 15.5984 129.386 15.526 129 15.526C128.614 15.526 128.252 15.5984 127.906 15.7432C127.56 15.888 127.263 16.0891 127.005 16.3465C126.748 16.6039 126.547 16.9016 126.402 17.2475C126.257 17.5934 126.185 17.9554 126.185 18.3415V21.157H131.824H131.816Z" fill="#303030"/>
<path d="M139.894 26.7801H137.078V12.6943H139.894V26.772V26.7801Z" fill="#303030"/>
<path d="M157.784 26.7801H148.131V12.6943H157.784V15.5099H150.946V18.3254H155.572V21.141H150.946V23.9485H157.784V26.764V26.7801Z" fill="#303030"/>
<path d="M172.85 26.7803H170.18V20.1035C170.18 19.9185 170.148 19.7495 170.075 19.5806C170.003 19.4197 169.906 19.2749 169.786 19.1462C169.665 19.0175 169.52 18.921 169.351 18.8566C169.19 18.7842 169.013 18.752 168.828 18.752C168.643 18.752 168.474 18.7842 168.313 18.8566C168.153 18.921 168.016 19.0255 167.895 19.1462C167.774 19.2669 167.678 19.4117 167.614 19.5806C167.549 19.7415 167.509 19.9185 167.509 20.1035V26.7803H164.83V20.1035C164.83 19.9185 164.798 19.7495 164.726 19.5806C164.661 19.4197 164.557 19.2749 164.436 19.1462C164.315 19.0255 164.171 18.921 164.002 18.8566C163.841 18.7842 163.664 18.752 163.479 18.752C163.294 18.752 163.125 18.7842 162.964 18.8566C162.803 18.921 162.658 19.0255 162.538 19.1462C162.417 19.2669 162.32 19.4117 162.256 19.5806C162.184 19.7415 162.151 19.9185 162.151 20.1035V26.7803H159.473V16.2663H160.124L160.848 17.0707C161.218 16.757 161.629 16.5157 162.079 16.3387C162.53 16.1698 162.996 16.0813 163.479 16.0813C163.961 16.0813 164.452 16.1698 164.919 16.3548C165.385 16.5398 165.796 16.8535 166.149 17.304C166.31 17.0788 166.503 16.8938 166.713 16.7329C166.922 16.572 167.147 16.4513 167.372 16.3468C167.597 16.2422 167.847 16.1778 168.096 16.1376C168.346 16.0974 168.587 16.0732 168.836 16.0732C169.391 16.0732 169.914 16.1778 170.405 16.387C170.896 16.5961 171.322 16.8857 171.684 17.2477C172.046 17.6097 172.336 18.0361 172.545 18.5268C172.754 19.0175 172.859 19.5404 172.859 20.0954V26.7723L172.85 26.7803Z" fill="#303030"/>
<path d="M184.981 26.78H184.337L183.3 25.3401C183.042 25.5734 182.777 25.7825 182.487 25.9836C182.206 26.1847 181.9 26.3537 181.586 26.5065C181.273 26.6513 180.951 26.772 180.621 26.8524C180.291 26.9329 179.953 26.9811 179.615 26.9811C178.875 26.9811 178.183 26.8605 177.532 26.6111C176.88 26.3617 176.309 25.9997 175.826 25.5251C175.336 25.0505 174.958 24.4713 174.676 23.7795C174.395 23.0876 174.258 22.3073 174.258 21.4305C174.258 20.61 174.395 19.8618 174.676 19.1781C174.958 18.4943 175.344 17.907 175.826 17.4163C176.317 16.9256 176.88 16.5475 177.532 16.274C178.183 16.0005 178.875 15.8638 179.615 15.8638C179.953 15.8638 180.291 15.904 180.629 15.9925C180.967 16.081 181.289 16.1936 181.602 16.3464C181.916 16.4993 182.214 16.6763 182.503 16.8774C182.785 17.0785 183.058 17.2957 183.3 17.537L184.337 16.2901H184.981V26.7881V26.78ZM182.278 21.4305C182.278 21.0605 182.206 20.7065 182.069 20.3606C181.932 20.0147 181.739 19.709 181.498 19.4516C181.256 19.1861 180.975 18.977 180.645 18.8161C180.323 18.6552 179.977 18.5747 179.607 18.5747C179.237 18.5747 178.899 18.6391 178.57 18.7598C178.248 18.8804 177.966 19.0654 177.725 19.3068C177.484 19.5481 177.299 19.8457 177.162 20.2077C177.025 20.5617 176.953 20.972 176.953 21.4305C176.953 21.889 177.025 22.2993 177.162 22.6532C177.299 23.0072 177.492 23.3129 177.725 23.5542C177.958 23.7955 178.248 23.9806 178.57 24.1012C178.891 24.2219 179.237 24.2863 179.607 24.2863C179.977 24.2863 180.315 24.2058 180.645 24.0449C180.967 23.884 181.248 23.6749 181.498 23.4094C181.739 23.144 181.932 22.8383 182.069 22.5004C182.206 22.1545 182.278 21.8005 182.278 21.4385V21.4305Z" fill="#303030"/>
<path d="M190.186 13.4023C190.186 13.6517 190.138 13.885 190.041 14.1022C189.945 14.3194 189.816 14.5044 189.655 14.6653C189.494 14.8262 189.301 14.9549 189.084 15.0514C188.867 15.1479 188.633 15.1962 188.384 15.1962C188.135 15.1962 187.901 15.1479 187.684 15.0514C187.467 14.9549 187.274 14.8262 187.113 14.6653C186.952 14.5044 186.823 14.3194 186.727 14.1022C186.63 13.885 186.582 13.6517 186.582 13.4023C186.582 13.1529 186.63 12.9277 186.727 12.7105C186.823 12.4933 186.952 12.3002 187.113 12.1393C187.274 11.9784 187.467 11.8497 187.684 11.7532C187.901 11.6567 188.135 11.6084 188.384 11.6084C188.633 11.6084 188.867 11.6567 189.084 11.7532C189.301 11.8497 189.494 11.9784 189.655 12.1393C189.816 12.3002 189.945 12.4933 190.041 12.7105C190.138 12.9277 190.186 13.161 190.186 13.4023ZM189.727 26.7801H187.024V16.2661H189.727V26.7801Z" fill="#303030"/>
<path d="M194.474 26.7799H191.771V12.0747H194.474V26.7718V26.7799Z" fill="#303030"/>
<path d="M216.395 22.7498C216.395 23.329 216.283 23.8841 216.066 24.3909C215.848 24.8977 215.543 25.3562 215.165 25.7343C214.778 26.1204 214.336 26.4181 213.821 26.6353C213.306 26.8525 212.759 26.9651 212.18 26.9651C211.657 26.9651 211.15 26.8766 210.676 26.6916C210.193 26.5066 209.759 26.2411 209.373 25.8872C208.986 26.2411 208.552 26.5066 208.069 26.6916C207.587 26.8766 207.08 26.9651 206.557 26.9651C205.978 26.9651 205.423 26.8525 204.916 26.6353C204.401 26.4181 203.951 26.1124 203.573 25.7343C203.195 25.3562 202.889 24.9057 202.672 24.3909C202.454 23.8761 202.342 23.329 202.342 22.7498V12.6943H205.157V22.7498C205.157 22.9429 205.19 23.1279 205.262 23.3049C205.334 23.4819 205.431 23.6267 205.56 23.7554C205.688 23.8841 205.833 23.9806 206.002 24.053C206.171 24.1254 206.356 24.1576 206.549 24.1576C206.742 24.1576 206.927 24.1254 207.096 24.053C207.265 23.9806 207.418 23.8841 207.547 23.7554C207.675 23.6267 207.772 23.4738 207.844 23.3049C207.917 23.136 207.949 22.9429 207.949 22.7498V12.6943H210.764V22.7498C210.764 22.9429 210.796 23.1279 210.869 23.3049C210.941 23.4819 211.038 23.6267 211.167 23.7554C211.295 23.8841 211.44 23.9806 211.617 24.053C211.794 24.1254 211.971 24.1576 212.164 24.1576C212.357 24.1576 212.542 24.1254 212.711 24.053C212.88 23.9806 213.033 23.8841 213.162 23.7554C213.29 23.6267 213.387 23.4738 213.467 23.3049C213.54 23.136 213.58 22.9429 213.58 22.7498V12.6943H216.387V22.7498H216.395Z" fill="#303030"/>
<path d="M221.173 26.7801H218.494V16.2661H219.146L220.031 17.513C220.465 17.1188 220.956 16.8212 221.503 16.604C222.05 16.3868 222.621 16.2822 223.208 16.2822H225.573V18.9529H223.208C222.927 18.9529 222.661 19.0093 222.412 19.1138C222.162 19.2184 221.945 19.3632 221.76 19.5482C221.575 19.7332 221.43 19.9504 221.326 20.1998C221.221 20.4492 221.165 20.7147 221.165 20.9962V26.7882L221.173 26.7801Z" fill="#303030"/>
<path d="M229.983 13.4023C229.983 13.6517 229.935 13.885 229.838 14.1022C229.741 14.3194 229.613 14.5044 229.452 14.6653C229.291 14.8262 229.098 14.9549 228.881 15.0514C228.664 15.1479 228.43 15.1962 228.181 15.1962C227.931 15.1962 227.698 15.1479 227.481 15.0514C227.264 14.9549 227.071 14.8262 226.91 14.6653C226.749 14.5044 226.62 14.3194 226.524 14.1022C226.427 13.885 226.379 13.6517 226.379 13.4023C226.379 13.1529 226.427 12.9277 226.524 12.7105C226.62 12.4933 226.749 12.3002 226.91 12.1393C227.071 11.9784 227.264 11.8497 227.481 11.7532C227.698 11.6567 227.931 11.6084 228.181 11.6084C228.43 11.6084 228.664 11.6567 228.881 11.7532C229.098 11.8497 229.291 11.9784 229.452 12.1393C229.613 12.3002 229.741 12.4933 229.838 12.7105C229.935 12.9277 229.983 13.161 229.983 13.4023ZM229.524 26.7801H226.821V16.2661H229.524V26.7801Z" fill="#303030"/>
<path d="M236.835 26.7801C236.192 26.7801 235.58 26.6595 235.009 26.4101C234.438 26.1688 233.939 25.8309 233.513 25.3965C233.087 24.9621 232.749 24.4714 232.499 23.9002C232.25 23.3291 232.129 22.7257 232.129 22.0742V18.9529H230.826V16.2822H232.129V12.083H234.8V16.2822H238.863V18.9529H234.8V22.0742C234.8 22.3557 234.856 22.6212 234.961 22.8625C235.066 23.1038 235.21 23.321 235.395 23.5061C235.58 23.6911 235.798 23.8359 236.047 23.9405C236.296 24.045 236.562 24.1013 236.843 24.1013H238.879V26.7721H236.843L236.835 26.7801Z" fill="#303030"/>
<path d="M244.55 24.206C244.655 24.2382 244.76 24.2624 244.864 24.2704C244.969 24.2784 245.073 24.2865 245.178 24.2865C245.443 24.2865 245.693 24.2543 245.934 24.1819C246.175 24.1095 246.401 24.0049 246.618 23.8762C246.835 23.7475 247.02 23.5786 247.189 23.3855C247.358 23.1925 247.495 22.9753 247.599 22.742L249.562 24.7128C249.313 25.0668 249.023 25.3805 248.701 25.6621C248.38 25.9436 248.026 26.185 247.648 26.378C247.269 26.5711 246.875 26.7239 246.457 26.8205C246.039 26.9251 245.612 26.9733 245.178 26.9733C244.438 26.9733 243.746 26.8366 243.094 26.5631C242.443 26.2895 241.872 25.9034 241.389 25.4127C240.898 24.922 240.52 24.3348 240.239 23.659C239.957 22.9833 239.82 22.2352 239.82 21.4227C239.82 20.6102 239.957 19.8299 240.239 19.1461C240.52 18.4623 240.906 17.8751 241.389 17.3844C241.88 16.9017 242.443 16.5236 243.094 16.2582C243.746 15.9927 244.438 15.856 245.178 15.856C245.612 15.856 246.047 15.9123 246.465 16.0168C246.883 16.1214 247.286 16.2743 247.656 16.4673C248.026 16.6604 248.388 16.9017 248.709 17.1913C249.039 17.4729 249.321 17.7947 249.57 18.1486L244.542 24.206H244.55ZM245.926 18.6795C245.805 18.6313 245.677 18.6071 245.556 18.5911C245.435 18.575 245.307 18.575 245.178 18.575C244.808 18.575 244.47 18.6393 244.14 18.7761C243.818 18.9128 243.537 19.1059 243.295 19.3472C243.054 19.5886 242.869 19.8942 242.732 20.2482C242.596 20.6022 242.523 20.9963 242.523 21.4307C242.523 21.5273 242.523 21.6399 242.539 21.7686C242.547 21.8893 242.563 22.018 242.588 22.1467C242.612 22.2754 242.636 22.3961 242.668 22.5167C242.7 22.6374 242.74 22.742 242.797 22.8305L245.918 18.6876L245.926 18.6795Z" fill="#303030"/>
<path d="M253.608 26.7801H250.93V16.2661H251.581L252.466 17.513C252.901 17.1188 253.391 16.8212 253.938 16.604C254.485 16.3868 255.056 16.2822 255.644 16.2822H258.009V18.9529H255.644C255.362 18.9529 255.097 19.0093 254.847 19.1138C254.598 19.2184 254.381 19.3632 254.196 19.5482C254.011 19.7332 253.866 19.9504 253.761 20.1998C253.657 20.4492 253.6 20.7147 253.6 20.9962V26.7882L253.608 26.7801Z" fill="#303030"/>
<path d="M26.394 0.708198C28.5821 -1.48792 31.9929 1.9229 29.7968 4.11098L17.2636 16.6442L13.0645 17.4405L13.8608 13.2414L26.394 0.708198Z" fill="#0878BD"/>
<path d="M6.57192 22.4604C6.45929 22.3478 6.32254 22.2593 6.1697 22.1869C6.01685 22.1225 5.84792 22.0903 5.67899 22.0903C5.51005 22.0903 5.34112 22.1225 5.18828 22.1869C5.03543 22.2512 4.89868 22.3397 4.78606 22.4604C4.67344 22.581 4.58495 22.7098 4.51255 22.8626C4.44819 23.0154 4.41602 23.1844 4.41602 23.3533V24.6163H6.95V23.3533C6.95 23.1763 6.91782 23.0154 6.85347 22.8626C6.78911 22.7098 6.70063 22.573 6.57996 22.4604H6.57192Z" fill="#0878BD"/>
<path d="M18.0516 18.1326L11.0611 19.4519L12.3803 12.4613L20.0145 4.82715H2.40528C1.06991 4.82715 0 5.9051 0 7.23242V28.0996C0 29.435 1.07795 30.5049 2.40528 30.5049H23.2724C24.6078 30.5049 25.6777 29.4269 25.6777 28.0996V10.4985L18.0436 18.1326H18.0516ZM8.20529 27.1504H6.94232V25.8874H4.40833V27.1504H3.14536V23.3614C3.14536 23.0155 3.20972 22.6857 3.34647 22.38C3.47518 22.0743 3.6602 21.8008 3.88545 21.5756C4.11069 21.3503 4.3842 21.1653 4.68989 21.0366C4.99557 20.9079 5.32539 20.8355 5.67935 20.8355C6.0333 20.8355 6.35508 20.8999 6.66881 21.0366C6.98254 21.1734 7.248 21.3503 7.47325 21.5756C7.70654 21.8089 7.88351 22.0743 8.01222 22.38C8.14093 22.6857 8.21333 23.0155 8.21333 23.3614V27.1504H8.20529ZM10.5703 27.1504H9.30737V20.8275H10.5703V27.1504Z" fill="#0878BD"/>
</svg>
