<svg width="20" height="20" viewBox="0 0 20 20" fill="none" xmlns="http://www.w3.org/2000/svg">
<path d="M10 17.5C14.1421 17.5 17.5 14.1421 17.5 10C17.5 5.85786 14.1421 2.5 10 2.5C5.85786 2.5 2.5 5.85786 2.5 10C2.5 14.1421 5.85786 17.5 10 17.5Z" fill="#D62F2F"/>
<path d="M10.0007 7.49984C10.5759 7.49984 11.0423 7.03347 11.0423 6.45817C11.0423 5.88287 10.5759 5.4165 10.0007 5.4165C9.42535 5.4165 8.95898 5.88287 8.95898 6.45817C8.95898 7.03347 9.42535 7.49984 10.0007 7.49984Z" fill="white"/>
<path d="M9.16797 8.75H10.8346V14.5833H9.16797V8.75Z" fill="white"/>
</svg>
